<svg width="286" height="177" viewBox="0 0 286 177" fill="none" xmlns="http://www.w3.org/2000/svg">
<path d="M265.935 148.642C263.776 143.102 262.171 137.22 260.412 130.997C259.236 126.815 257.312 122.128 253.166 120.81C249.137 119.528 244.797 122.186 242.314 125.615C239.831 129.044 238.585 133.196 236.462 136.861C232.621 143.495 225.81 146.271 220.182 140.443C212.142 132.109 208.525 120.752 203.425 110.588C199.725 103.213 196.625 94.573 191.968 87.773C184.857 77.404 175.106 68.564 162.143 68.564C153.906 69.806 146.68 77.085 141.781 86.185C136.882 95.285 134.023 106.1 131.588 116.893C127.153 136.52 123.907 156.605 120.666 176.661L284.244 174.744C283.597 174.744 279.586 169.392 278.815 168.651C273.085 163.024 268.684 156.188 265.935 148.642Z" fill="#DCE6EF"/>
<path d="M234.886 157.995C234.568 164.353 227.646 175.469 221.286 175.151C214.926 174.833 211.54 163.194 211.876 156.83C212.212 150.466 218.969 118.653 225.327 118.976C231.685 119.299 235.209 151.637 234.886 157.995Z" fill="#6AA5FE"/>
<path d="M225.004 123.111L221.799 174.639" stroke="#1A55B5" stroke-width="0.87" stroke-linecap="round" stroke-linejoin="round"/>
<path d="M220.335 156.671C218.869 159.865 217.789 163.222 217.118 166.671C216.625 168.416 216.712 170.273 217.365 171.964C217.858 172.815 218.544 173.539 219.367 174.077C220.191 174.615 221.128 174.953 222.106 175.064C226.811 175.84 231.558 172.947 234.328 169.035C237.098 165.123 238.298 160.354 239.398 155.696C240.13 151.982 241.255 148.356 242.756 144.88C243.456 143.41 247.556 137.752 245.614 136.287C242.961 134.199 235.28 136.469 230.357 141.839C226.26 146.228 222.878 151.234 220.335 156.672V156.671Z" fill="#FFC957"/>
<path d="M222.105 175.045C222.105 175.045 227.81 152.83 241.585 140.085" stroke="#6AA5FE" stroke-width="0.87" stroke-linecap="round" stroke-linejoin="round"/>
<path d="M253.759 151.43C253.201 152.266 252.43 152.936 251.524 153.371C250.495 153.959 249.407 154.453 248.354 154.947C246.96 155.557 245.606 156.257 244.302 157.041C243.401 157.601 242.568 158.264 241.82 159.017C242.851 156.632 244.173 154.384 245.755 152.324C247.766 149.736 249.831 148.419 251.895 148.419H252.042C252.574 148.402 253.095 148.568 253.518 148.89C253.829 149.23 254.021 149.661 254.064 150.12C254.108 150.578 254.001 151.038 253.759 151.43Z" fill="#1A55B5"/>
<path d="M256.065 165.793C255.203 166.31 254.217 166.586 253.212 166.593C252.036 166.675 250.859 166.664 249.683 166.658C248.164 166.614 246.644 166.668 245.131 166.817C244.075 166.939 243.037 167.181 242.037 167.54C243.992 165.829 246.149 164.363 248.46 163.176C251.401 161.7 253.812 161.412 255.677 162.276L255.806 162.341C256.295 162.552 256.697 162.927 256.941 163.4C257.073 163.84 257.059 164.311 256.901 164.742C256.743 165.173 256.45 165.542 256.065 165.793Z" fill="#1A55B5"/>
<path d="M250.626 172.863C249.954 172.716 249.334 172.391 248.832 171.922C248.209 171.416 247.615 170.846 247.038 170.299C246.298 169.563 245.512 168.876 244.685 168.24C244.104 167.805 243.474 167.44 242.809 167.152C244.583 167.217 246.343 167.499 248.049 167.993C250.202 168.628 251.549 169.616 252.06 170.934L252.095 171.028C252.238 171.361 252.263 171.732 252.166 172.081C252.029 172.361 251.804 172.589 251.526 172.73C251.248 172.871 250.932 172.918 250.625 172.863H250.626Z" fill="#1A55B5"/>
<path d="M235.15 175.169C235.15 175.169 235.215 161.577 251.818 150.037" stroke="#2A294F" stroke-width="0.78" stroke-linecap="round" stroke-linejoin="round"/>
<path d="M235.15 175.168C236.992 171.783 239.732 168.972 243.07 167.045C246.408 165.119 250.213 164.153 254.065 164.252" stroke="#2A294F" stroke-width="0.78" stroke-linecap="round" stroke-linejoin="round"/>
<path d="M242.674 167.287C242.674 167.287 245.35 167.093 250.908 171.31" stroke="#2A294F" stroke-width="0.78" stroke-linecap="round" stroke-linejoin="round"/>
<path d="M92.517 175.286C88.676 160.786 84.817 146.272 80.307 132.227C77.766 124.31 74.961 116.417 71.061 110.083C67.161 103.749 62 99.0722 56.81 99.1022C48.817 100.631 43.665 108.536 40.289 117.276C38.072 123.005 36.995 129.945 35.425 136.003C33.266 144.343 32.137 153.412 27.985 160.703C25.08 165.814 20.615 164.508 17.604 159.921C15.945 157.386 14.775 154.375 12.899 152.063C11.023 149.751 8.1 148.248 5.74 149.713C3.38 151.178 2.587 155.006 2.264 158.329C1.793 163.258 1.37 167.922 0.588 172.386C0.417 173.356 0.223 174.321 0 175.274L92.517 175.286Z" fill="#DCE6EF"/>
<path d="M58.2281 155.271C55.8281 152.501 52.7931 150.119 51.8351 146.625C51.1411 144.078 51.6881 141.379 51.9641 138.75C52.2401 136.121 52.1401 133.215 50.4411 131.192C49.0351 129.522 46.8241 128.798 44.6951 128.339C42.5661 127.88 40.3431 127.592 38.4551 126.51C35.3851 124.746 35.9971 121.758 34.3381 119.135C32.4851 116.194 28.1861 112.435 24.4981 114.389C20.5981 116.459 21.2161 122.747 23.8101 125.529C25.5331 127.37 27.7391 129.134 27.9921 131.646C28.3741 135.422 24.0451 138.827 25.2391 142.433C26.1151 145.091 29.4741 146.009 31.1211 148.273C32.7681 150.537 32.4271 153.649 31.4621 156.248C30.4971 158.847 28.9741 161.253 28.3741 163.965C27.1451 169.505 31.4971 173.334 36.4491 174.552C41.0071 175.693 50.8291 175.14 50.8291 175.14C54.6885 173.681 57.9618 170.995 60.1451 167.494C60.8631 166.213 61.2836 164.786 61.3751 163.32C61.4667 161.854 61.2271 160.386 60.6741 159.025C60.0638 157.651 59.2381 156.384 58.2281 155.271Z" fill="#B603C9"/>
<path d="M28.8555 120.364C28.8555 120.364 45.6235 146.243 47.4555 175.027" stroke="#6AA5FE" stroke-linecap="round" stroke-linejoin="round"/>
<path d="M13.9218 155.33C14.2431 155.089 14.6372 154.964 15.0388 154.977H15.1478C16.7068 154.977 18.2708 155.965 19.7938 157.918C20.9896 159.476 21.9884 161.175 22.7678 162.978C22.201 162.406 21.5694 161.903 20.8858 161.478C19.9 160.888 18.8787 160.36 17.8278 159.896C17.0278 159.525 16.2048 159.143 15.4278 158.72C14.7438 158.39 14.1609 157.882 13.7398 157.25C13.556 156.955 13.4742 156.607 13.5071 156.261C13.54 155.914 13.6857 155.588 13.9218 155.333V155.33Z" fill="#6AA5FE"/>
<path d="M11.3402 166.269C11.5269 165.912 11.83 165.63 12.1992 165.469L12.2932 165.422C13.7052 164.751 15.5402 164.981 17.7572 166.104C19.5046 167 21.1343 168.108 22.6092 169.404C21.8493 169.129 21.0594 168.946 20.2562 168.857C19.111 168.743 17.9597 168.701 16.8092 168.733C15.9332 168.733 15.0452 168.733 14.1332 168.68C13.3754 168.683 12.6311 168.48 11.9802 168.092C11.6885 167.9 11.4678 167.618 11.352 167.289C11.2362 166.959 11.2327 166.601 11.3402 166.269Z" fill="#6AA5FE"/>
<path d="M14.9331 172.834C14.8565 172.569 14.8752 172.286 14.9861 172.034C14.9861 172.034 14.9861 171.987 14.9861 171.963C15.285 171.383 15.7149 170.881 16.2417 170.496C16.7685 170.111 17.3778 169.854 18.0211 169.746C19.3104 169.368 20.6423 169.155 21.9851 169.111C21.4804 169.325 21.0044 169.602 20.5681 169.934C19.9466 170.412 19.3574 170.931 18.8041 171.487C18.3691 171.899 17.9161 172.328 17.4451 172.716C17.0659 173.07 16.5986 173.316 16.0921 173.428C15.8608 173.465 15.6237 173.428 15.4152 173.321C15.2068 173.214 15.0378 173.043 14.9331 172.834Z" fill="#6AA5FE"/>
<path d="M27.807 175.168C27.807 175.168 27.76 164.893 15.207 156.168" stroke="#2A294F" stroke-width="0.78" stroke-linecap="round" stroke-linejoin="round"/>
<path d="M27.8078 175.168C26.4135 172.612 24.3404 170.49 21.8172 169.037C19.2939 167.584 16.4185 166.856 13.5078 166.934" stroke="#2A294F" stroke-width="0.78" stroke-linecap="round" stroke-linejoin="round"/>
<path d="M22.119 169.211C22.119 169.211 20.096 169.064 15.873 172.252" stroke="#2A294F" stroke-width="0.78" stroke-linecap="round" stroke-linejoin="round"/>
<path d="M158.58 13.9902H55.6961C50.477 13.9902 46.2461 18.2211 46.2461 23.4402V165.724C46.2461 170.943 50.477 175.174 55.6961 175.174H158.58C163.799 175.174 168.03 170.943 168.03 165.724V23.4402C168.03 18.2211 163.799 13.9902 158.58 13.9902Z" fill="#6AA5FE"/>
<path d="M46.2461 53.2559V169.606C46.2461 171.08 46.8317 172.494 47.874 173.536C48.9163 174.578 50.33 175.164 51.8041 175.164H162.466C163.94 175.164 165.354 174.578 166.396 173.536C167.439 172.494 168.024 171.08 168.024 169.606V146.673L46.2461 53.2559Z" fill="#527EE9"/>
<path d="M157.094 21.4248H57.1823C55.0504 21.4248 53.3223 23.153 53.3223 25.2848V163.875C53.3223 166.007 55.0504 167.735 57.1823 167.735H157.094C159.226 167.735 160.954 166.007 160.954 163.875V25.2848C160.954 23.153 159.226 21.4248 157.094 21.4248Z" fill="#F3F4F6"/>
<path d="M116.371 10.9441V10.4911C116.405 9.25433 116.191 8.02332 115.741 6.87077C115.291 5.71823 114.615 4.66752 113.752 3.78074C112.889 2.89396 111.858 2.1891 110.718 1.7078C109.578 1.22649 108.353 0.978516 107.116 0.978516C105.879 0.978516 104.654 1.22649 103.515 1.7078C102.375 2.1891 101.343 2.89396 100.48 3.78074C99.6178 4.66752 98.9415 5.71823 98.4918 6.87077C98.042 8.02332 97.8278 9.25433 97.8618 10.4911V10.9441H84.3008V25.0601H129.983V10.9441H116.371Z" fill="#1A55B5"/>
<path d="M84.2949 10.9438V25.0538H129.975L84.2949 10.9438Z" fill="#2C6BC6"/>
<path d="M109.138 15.2886C111.788 14.1831 113.04 11.1386 111.935 8.48832C110.829 5.83808 107.785 4.58579 105.135 5.69126C102.484 6.79672 101.232 9.84131 102.338 12.4915C103.443 15.1418 106.488 16.3941 109.138 15.2886Z" fill="#527EE9"/>
<path d="M103.462 6.81494C102.961 7.29316 102.56 7.86674 102.284 8.502C102.007 9.13725 101.86 9.82137 101.852 10.5142C101.843 11.2069 101.974 11.8944 102.235 12.5363C102.495 13.1781 102.882 13.7613 103.372 14.2516C103.861 14.7419 104.444 15.1294 105.085 15.3915C105.726 15.6535 106.414 15.7847 107.107 15.7773C107.799 15.77 108.484 15.6243 109.119 15.3488C109.755 15.0733 110.329 14.6735 110.808 14.1729L103.462 6.81494Z" fill="#6AA5FE"/>
<path d="M129.977 25.0542H84.3008V26.0242H129.977V25.0542Z" fill="#CDE1F9"/>
<path d="M83.0769 44.5918H65.7559V61.9128H83.0769V44.5918Z" stroke="#1A55B5" stroke-miterlimit="10"/>
<path d="M70.8262 54.1409L76.1262 58.3049L86.8942 47.9209" stroke="#F3F4F6" stroke-width="4" stroke-miterlimit="10"/>
<path d="M69.6484 52.9651L74.9484 57.1291L85.7164 46.7451" stroke="#FF746F" stroke-width="4" stroke-miterlimit="10"/>
<path d="M147.845 49.5091H91.3815C91.2127 49.5048 91.0518 49.4371 90.9308 49.3194C90.8097 49.2017 90.7375 49.0427 90.7285 48.8741C90.7285 48.786 90.7459 48.6987 90.7796 48.6173C90.8133 48.5359 90.8627 48.462 90.925 48.3997C90.9874 48.3374 91.0613 48.2879 91.1427 48.2542C91.2242 48.2205 91.3114 48.2031 91.3995 48.2031H147.863C148.037 48.2076 148.203 48.2801 148.325 48.4053C148.447 48.5304 148.516 48.6983 148.516 48.8731C148.507 49.045 148.432 49.207 148.307 49.3254C148.182 49.4438 148.017 49.5096 147.845 49.5091Z" fill="#6AA5FE"/>
<path d="M147.845 52.45H91.3815C91.2127 52.4457 91.0518 52.378 90.9308 52.2603C90.8097 52.1426 90.7375 51.9836 90.7285 51.815C90.7288 51.6372 90.7996 51.4668 90.9254 51.3412C91.0512 51.2156 91.2217 51.145 91.3995 51.145H147.863C148.037 51.1495 148.203 51.222 148.325 51.3472C148.447 51.4723 148.516 51.6402 148.516 51.815C148.507 51.9866 148.432 52.1481 148.307 52.2663C148.183 52.3845 148.016 52.4503 147.845 52.45Z" fill="#6AA5FE"/>
<path d="M147.845 55.3909H91.3815C91.2127 55.3866 91.0518 55.3189 90.9308 55.2012C90.8097 55.0835 90.7375 54.9245 90.7285 54.7559C90.7288 54.5781 90.7996 54.4077 90.9254 54.2821C91.0512 54.1565 91.2217 54.0859 91.3995 54.0859H147.863C148.037 54.0904 148.203 54.1629 148.325 54.2881C148.447 54.4133 148.516 54.5811 148.516 54.7559C148.507 54.9277 148.432 55.0894 148.307 55.2076C148.182 55.3258 148.016 55.3914 147.845 55.3909Z" fill="#6AA5FE"/>
<path d="M147.845 58.3319H91.3815C91.2127 58.3278 91.0516 58.2601 90.9305 58.1424C90.8094 58.0246 90.7373 57.8655 90.7285 57.6969C90.7288 57.5191 90.7996 57.3487 90.9254 57.223C91.0512 57.0974 91.2217 57.0269 91.3995 57.0269H147.863C148.037 57.0313 148.203 57.1038 148.325 57.229C148.447 57.3542 148.516 57.5221 148.516 57.6969C148.507 57.8686 148.432 58.0303 148.307 58.1485C148.182 58.2667 148.016 58.3323 147.845 58.3319Z" fill="#6AA5FE"/>
<path d="M83.0769 72.4819H65.7559V89.8029H83.0769V72.4819Z" stroke="#1A55B5" stroke-miterlimit="10"/>
<path d="M70.8262 82.028L76.1262 86.186L86.8942 75.811" stroke="#F3F4F6" stroke-width="4" stroke-miterlimit="10"/>
<path d="M69.6484 80.8518L74.9484 85.0098L85.7164 74.6348" stroke="#FF746F" stroke-width="4" stroke-miterlimit="10"/>
<path d="M147.844 77.399H91.3809C91.2042 77.3987 91.0347 77.3287 90.9092 77.2042C90.7838 77.0797 90.7125 76.9107 90.7109 76.734C90.7109 76.5563 90.7815 76.3858 90.9072 76.2602C91.0328 76.1346 91.2032 76.064 91.3809 76.064H147.844C148.022 76.064 148.192 76.1346 148.318 76.2602C148.443 76.3858 148.514 76.5563 148.514 76.734C148.513 76.9108 148.441 77.0799 148.316 77.2045C148.19 77.3291 148.021 77.399 147.844 77.399Z" fill="#6AA5FE"/>
<path d="M147.844 80.3399H91.3809C91.2042 80.3396 91.0347 80.2697 90.9092 80.1451C90.7838 80.0206 90.7125 79.8516 90.7109 79.6749C90.7108 79.5868 90.728 79.4996 90.7617 79.4182C90.7953 79.3368 90.8446 79.2628 90.9068 79.2005C90.9691 79.1382 91.043 79.0887 91.1243 79.055C91.2057 79.0213 91.2929 79.0039 91.3809 79.0039H147.844C147.932 79.0039 148.019 79.0213 148.101 79.055C148.182 79.0887 148.256 79.1382 148.318 79.2005C148.38 79.2628 148.43 79.3368 148.463 79.4182C148.497 79.4996 148.514 79.5868 148.514 79.6749C148.513 79.8517 148.441 80.0209 148.316 80.1454C148.19 80.27 148.021 80.3399 147.844 80.3399Z" fill="#6AA5FE"/>
<path d="M147.844 83.2808H91.3809C91.2041 83.2808 91.0344 83.2109 90.9089 83.0863C90.7834 82.9618 90.7123 82.7926 90.7109 82.6158C90.7108 82.5277 90.728 82.4405 90.7617 82.3591C90.7953 82.2777 90.8446 82.2037 90.9068 82.1414C90.9691 82.0791 91.043 82.0296 91.1243 81.9959C91.2057 81.9622 91.2929 81.9448 91.3809 81.9448H147.844C147.932 81.9448 148.019 81.9622 148.101 81.9959C148.182 82.0296 148.256 82.0791 148.318 82.1414C148.38 82.2037 148.43 82.2777 148.463 82.3591C148.497 82.4405 148.514 82.5277 148.514 82.6158C148.513 82.7926 148.441 82.9618 148.316 83.0863C148.19 83.2109 148.021 83.2808 147.844 83.2808Z" fill="#6AA5FE"/>
<path d="M147.844 86.2222H91.3809C91.2042 86.222 91.0347 86.152 90.9092 86.0275C90.7838 85.9029 90.7125 85.734 90.7109 85.5572C90.7109 85.3795 90.7815 85.2091 90.9072 85.0835C91.0328 84.9578 91.2032 84.8872 91.3809 84.8872H147.844C148.022 84.8872 148.192 84.9578 148.318 85.0835C148.443 85.2091 148.514 85.3795 148.514 85.5572C148.513 85.734 148.441 85.9032 148.316 86.0277C148.19 86.1523 148.021 86.2222 147.844 86.2222Z" fill="#6AA5FE"/>
<path d="M83.0769 100.373H65.7559V117.694H83.0769V100.373Z" stroke="#1A55B5" stroke-miterlimit="10"/>
<path d="M70.8262 109.919L76.1262 114.077L86.8952 103.702" stroke="#F3F4F6" stroke-width="4" stroke-miterlimit="10"/>
<path d="M69.6484 108.742L74.9484 112.9L85.7174 102.525" stroke="#FF746F" stroke-width="4" stroke-miterlimit="10"/>
<path d="M147.844 105.29H91.3809C91.2929 105.29 91.2057 105.273 91.1243 105.239C91.043 105.205 90.9691 105.156 90.9068 105.094C90.8446 105.031 90.7953 104.957 90.7617 104.876C90.728 104.794 90.7108 104.707 90.7109 104.619C90.7123 104.442 90.7834 104.273 90.9089 104.149C91.0344 104.024 91.2041 103.954 91.3809 103.954H147.844C148.021 103.954 148.191 104.024 148.316 104.148C148.442 104.273 148.513 104.442 148.515 104.619C148.515 104.707 148.498 104.795 148.464 104.876C148.43 104.958 148.381 105.032 148.319 105.094C148.256 105.156 148.182 105.206 148.101 105.239C148.019 105.273 147.932 105.29 147.844 105.29Z" fill="#6AA5FE"/>
<path d="M147.844 108.23H91.3809C91.2929 108.23 91.2057 108.213 91.1243 108.179C91.043 108.145 90.9691 108.096 90.9068 108.033C90.8446 107.971 90.7953 107.897 90.7617 107.816C90.728 107.734 90.7108 107.647 90.7109 107.559C90.7123 107.382 90.7834 107.213 90.9089 107.089C91.0344 106.964 91.2041 106.894 91.3809 106.894H147.844C148.021 106.894 148.191 106.964 148.317 107.088C148.442 107.213 148.514 107.382 148.515 107.559C148.515 107.647 148.498 107.735 148.464 107.816C148.43 107.897 148.381 107.971 148.319 108.034C148.256 108.096 148.182 108.146 148.101 108.179C148.019 108.213 147.932 108.23 147.844 108.23Z" fill="#6AA5FE"/>
<path d="M147.844 111.171H91.3809C91.2929 111.171 91.2057 111.154 91.1243 111.12C91.043 111.086 90.9691 111.037 90.9068 110.974C90.8446 110.912 90.7953 110.838 90.7617 110.757C90.728 110.675 90.7108 110.588 90.7109 110.5C90.7123 110.323 90.7834 110.154 90.9089 110.029C91.0344 109.905 91.2041 109.835 91.3809 109.835H147.844C148.021 109.835 148.191 109.905 148.316 110.029C148.442 110.154 148.513 110.323 148.515 110.5C148.515 110.588 148.498 110.675 148.464 110.757C148.43 110.838 148.381 110.912 148.319 110.975C148.256 111.037 148.182 111.086 148.101 111.12C148.019 111.154 147.932 111.171 147.844 111.171Z" fill="#6AA5FE"/>
<path d="M147.844 114.112H91.3809C91.2929 114.112 91.2057 114.095 91.1243 114.061C91.043 114.027 90.9691 113.978 90.9068 113.915C90.8446 113.853 90.7953 113.779 90.7617 113.698C90.728 113.616 90.7108 113.529 90.7109 113.441C90.7123 113.264 90.7834 113.095 90.9089 112.97C91.0344 112.846 91.2041 112.776 91.3809 112.776H147.844C148.021 112.776 148.191 112.846 148.316 112.97C148.442 113.095 148.513 113.264 148.515 113.441C148.515 113.529 148.498 113.616 148.464 113.698C148.43 113.779 148.381 113.853 148.319 113.916C148.256 113.978 148.182 114.027 148.101 114.061C148.019 114.095 147.932 114.112 147.844 114.112Z" fill="#6AA5FE"/>
<path d="M83.0769 128.263H65.7559V145.584H83.0769V128.263Z" stroke="#1A55B5" stroke-miterlimit="10"/>
<path d="M70.8262 137.809L76.1262 141.967L86.8952 131.592" stroke="#F3F4F6" stroke-width="4" stroke-miterlimit="10"/>
<path d="M69.6484 136.633L74.9484 140.791L85.7174 130.416" stroke="#FF746F" stroke-width="4" stroke-miterlimit="10"/>
<path d="M147.844 133.18H91.3809C91.2929 133.18 91.2057 133.162 91.1243 133.129C91.043 133.095 90.9691 133.045 90.9068 132.983C90.8446 132.921 90.7953 132.847 90.7617 132.765C90.728 132.684 90.7108 132.597 90.7109 132.509C90.7123 132.332 90.7834 132.163 90.9089 132.038C91.0344 131.914 91.2041 131.844 91.3809 131.844H147.844C148.021 131.844 148.191 131.914 148.316 132.038C148.442 132.163 148.513 132.332 148.515 132.509C148.515 132.597 148.498 132.684 148.464 132.766C148.43 132.847 148.381 132.921 148.319 132.984C148.256 133.046 148.182 133.095 148.101 133.129C148.019 133.163 147.932 133.18 147.844 133.18Z" fill="#6AA5FE"/>
<path d="M147.844 136.121H91.3809C91.2929 136.121 91.2057 136.104 91.1243 136.07C91.043 136.036 90.9691 135.987 90.9068 135.925C90.8446 135.862 90.7953 135.788 90.7617 135.707C90.728 135.625 90.7108 135.538 90.7109 135.45C90.7125 135.273 90.7838 135.104 90.9092 134.98C91.0347 134.855 91.2042 134.785 91.3809 134.785H147.844C148.021 134.785 148.191 134.855 148.316 134.98C148.442 135.104 148.513 135.273 148.515 135.45C148.515 135.538 148.498 135.626 148.464 135.707C148.43 135.789 148.381 135.863 148.319 135.925C148.256 135.987 148.182 136.037 148.101 136.07C148.019 136.104 147.932 136.121 147.844 136.121Z" fill="#6AA5FE"/>
<path d="M147.844 139.062H91.3809C91.2032 139.062 91.0328 138.991 90.9072 138.866C90.7815 138.74 90.7109 138.57 90.7109 138.392C90.7123 138.215 90.7834 138.046 90.9089 137.922C91.0344 137.797 91.2041 137.727 91.3809 137.727H147.844C148.021 137.727 148.191 137.797 148.317 137.921C148.442 138.046 148.514 138.215 148.515 138.392C148.515 138.48 148.498 138.567 148.464 138.649C148.43 138.73 148.381 138.804 148.318 138.866C148.256 138.928 148.182 138.978 148.101 139.011C148.019 139.045 147.932 139.062 147.844 139.062Z" fill="#6AA5FE"/>
<path d="M147.844 142.002H91.3809C91.2929 142.002 91.2057 141.985 91.1243 141.951C91.043 141.917 90.9691 141.868 90.9068 141.805C90.8446 141.743 90.7953 141.669 90.7617 141.588C90.728 141.506 90.7108 141.419 90.7109 141.331C90.7123 141.154 90.7834 140.985 90.9089 140.86C91.0344 140.736 91.2041 140.666 91.3809 140.666H147.844C148.021 140.666 148.191 140.736 148.316 140.86C148.442 140.985 148.513 141.154 148.515 141.331C148.515 141.419 148.498 141.506 148.464 141.588C148.43 141.669 148.381 141.743 148.319 141.806C148.256 141.868 148.182 141.918 148.101 141.951C148.019 141.985 147.932 142.002 147.844 142.002Z" fill="#6AA5FE"/>
<path d="M0.511719 175.169H285.25" stroke="#2A294F" stroke-width="0.78" stroke-linecap="round" stroke-linejoin="round"/>
<path d="M182.633 169.916H179.951V173.221H182.633V169.916Z" fill="#FF746F"/>
<path d="M179.976 172.469L181.376 172.904L182.682 172.469L183.852 175.157H173L177.082 173.816L179.976 172.469Z" fill="#2A294F"/>
<path d="M208.086 173.221H210.774L209.774 169.916H207.096L208.086 173.221Z" fill="#FF746F"/>
<path d="M210.536 172.469L209.13 172.904L207.83 172.469L206.66 175.157H217.506L213.43 173.816L210.536 172.469Z" fill="#2A294F"/>
<path d="M173.929 58.1281C173.564 58.4041 170.265 60.3511 170.265 60.3511L167.912 57.3511L168.612 53.9341L173.653 54.2461L174.535 56.7991C174.752 57.4081 174.376 57.7851 173.929 58.1281Z" fill="#FE9280"/>
<path d="M173.659 54.25L174.424 56.491L172.071 57.426C171.628 57.6203 171.131 57.6556 170.665 57.526C170.169 57.3925 169.739 57.0845 169.452 56.6588C169.166 56.2331 169.043 55.7182 169.106 55.209L169.253 53.98L173.659 54.25Z" fill="#E86767"/>
<path d="M172.518 57.243L174.535 57.537L175.641 55.643C175.744 55.4783 175.778 55.2793 175.735 55.0897C175.692 54.9 175.576 54.735 175.412 54.631C175.246 54.5291 175.048 54.496 174.859 54.5388C174.67 54.5816 174.505 54.6969 174.4 54.86L172.518 57.243Z" fill="#FF746F"/>
<path d="M168.888 65.4009L164.73 66.4539L163.248 78.4939L168.112 78.6879L168.888 65.4009Z" fill="white"/>
<path d="M225.659 75.1061L218.389 74.1651L220.053 60.9551L227.317 61.8671C228.185 61.9761 229.022 62.255 229.783 62.6879C230.543 63.1209 231.21 63.6993 231.746 64.3903C232.283 65.0812 232.678 65.8711 232.909 66.7147C233.14 67.5584 233.202 68.4393 233.093 69.3071C232.987 70.1765 232.71 71.0165 232.279 71.7788C231.847 72.5412 231.27 73.2109 230.579 73.7497C229.889 74.2885 229.099 74.6858 228.254 74.9187C227.41 75.1516 226.528 75.2146 225.659 75.1061Z" fill="#FE9280"/>
<path opacity="0.2" d="M226.034 72.0952L218.794 71.1772L218.418 74.1882L225.688 75.1062C226.683 75.2289 227.692 75.1259 228.642 74.8047C229.591 74.4835 230.456 73.9525 231.172 73.2511C231.888 72.5497 232.437 71.6959 232.778 70.7533C233.118 69.8106 233.242 68.8033 233.14 67.8062C232.615 69.2194 231.627 70.413 230.336 71.192C229.046 71.971 227.529 72.2894 226.034 72.0952Z" fill="#777470"/>
<path d="M217.5 74.0769L140.4 64.1309L142.059 50.9209L219.166 60.8669L217.5 74.0769Z" fill="#FFC957"/>
<path d="M126.658 55.6909L140.397 64.1309L142.056 50.9209L126.658 55.6909Z" fill="#FFF4DD"/>
<path opacity="0.2" d="M126.658 55.6909L140.397 64.1309L140.808 60.9009L126.658 55.6909Z" fill="#777470"/>
<path d="M131.246 54.2671L126.658 55.6901L130.752 58.2011L131.246 54.2671Z" fill="#2A294F"/>
<path d="M225.537 61.6841L219.154 60.8799L217.49 74.0894L223.872 74.8936L225.537 61.6841Z" fill="#D3EAF5"/>
<path d="M225.622 61.0807L223.439 60.8062L221.635 75.1501L223.818 75.4247L225.622 61.0807Z" fill="#D3EAF5"/>
<path opacity="0.2" d="M221.7 74.6059L140.4 64.1309L140.806 60.9019L222.113 71.3769L221.7 74.6059Z" fill="#777470"/>
<path opacity="0.05" d="M222.957 64.6249L141.65 54.1499L142.056 50.9209L223.363 61.3959L222.957 64.6249Z" fill="#777470"/>
<path opacity="0.15" d="M224.372 71.0407L222.189 70.7661L221.638 75.1486L223.821 75.4232L224.372 71.0407Z" fill="#777470"/>
<path d="M196.908 106.854L197.996 104.037L201.666 103.737C201.963 103.68 202.271 103.744 202.521 103.914C202.772 104.084 202.944 104.346 203.001 104.643C203.002 104.942 202.888 105.23 202.684 105.449C202.48 105.667 202.2 105.8 201.901 105.819L196.908 106.854Z" fill="#E86767"/>
<path d="M195.009 104.061L196.909 106.855L200.509 106.114L196.474 100.127L195.703 100.639C195.157 101.001 194.777 101.565 194.647 102.207C194.517 102.849 194.647 103.516 195.009 104.062V104.061Z" fill="#FF746F"/>
<path d="M197.985 103.118L210.219 90.2979L203.773 88.7979L196.48 100.126L197.985 103.118Z" fill="white"/>
<path d="M205.497 89.745C205.77 90.329 206.237 90.8003 206.819 91.0785C207.401 91.3567 208.061 91.4247 208.687 91.2709C209.313 91.1172 209.867 90.7511 210.253 90.2351C210.64 89.7191 210.836 89.085 210.807 88.4409C210.779 87.7967 210.528 87.1823 210.098 86.7022C209.667 86.2222 209.084 85.9061 208.447 85.8079C207.809 85.7097 207.158 85.8354 206.603 86.1636C206.048 86.4919 205.624 87.0023 205.403 87.608C205.277 87.953 205.221 88.3192 205.237 88.6859C205.253 89.0526 205.341 89.4125 205.497 89.745Z" fill="white"/>
<path d="M206.442 90.8618L210.224 86.8328L197.032 71.1878C196.765 70.8289 196.425 70.5312 196.034 70.3146C195.643 70.0979 195.21 69.9674 194.765 69.9318C194.319 69.8962 193.871 69.9563 193.451 70.1081C193.03 70.2599 192.647 70.4998 192.327 70.8118C190.968 72.1468 191.098 76.8758 192.615 78.0348L206.442 90.8618Z" fill="white"/>
<path d="M183.89 72.9597L189.318 73.394L190.007 64.7836L184.579 64.3493L183.89 72.9597Z" fill="#FF746F"/>
<path d="M165.419 76.6698C164.859 76.7091 164.33 76.9414 163.921 77.3272C163.513 77.7129 163.251 78.2283 163.18 78.7855C163.109 79.3427 163.233 79.9074 163.531 80.3833C163.83 80.8592 164.284 81.217 164.816 81.3957C165.349 81.5744 165.927 81.563 166.452 81.3635C166.977 81.1639 167.417 80.7885 167.696 80.3012C167.976 79.8139 168.078 79.2448 167.985 78.6908C167.892 78.1369 167.61 77.6322 167.186 77.2629C166.945 77.0528 166.665 76.8923 166.362 76.7906C166.059 76.6888 165.738 76.6478 165.419 76.6698Z" fill="white"/>
<path d="M163.885 77.0309L166.355 81.4129L181.435 78.0249C183.282 77.5539 184.282 73.0609 183.552 71.2959C183.381 70.8809 183.122 70.5075 182.794 70.2011C182.466 69.8948 182.076 69.6625 181.651 69.5203C181.225 69.378 180.773 69.3289 180.327 69.3765C179.881 69.4241 179.45 69.5671 179.064 69.7959L163.885 77.0309Z" fill="white"/>
<path d="M195.05 101.855L196.697 73.1472C196.787 72.7855 196.799 72.4088 196.734 72.0418C196.669 71.6749 196.527 71.3257 196.318 71.0172C196.109 70.7087 195.837 70.4477 195.52 70.2513C195.204 70.0548 194.849 69.9274 194.48 69.8772L181.029 69.3892C180.659 69.3386 180.283 69.3668 179.925 69.4717C179.567 69.5766 179.236 69.756 178.952 69.9981C178.668 70.2402 178.439 70.5395 178.279 70.8764C178.119 71.2134 178.032 71.5803 178.024 71.9532L175.27 106.848L195.05 101.855Z" fill="white"/>
<path d="M182.187 101.855L185.287 111.513L183.911 171.413H178.382L175.27 106.848L175.693 101.855H182.187Z" fill="#1A55B5"/>
<path d="M182.188 101.855L185.21 113.718H187.392L206.884 171.41H211.413L197.691 109.683L195.05 101.855H182.188Z" fill="#527EE9"/>
<path d="M168.487 53.9847L168.58 53.4044L173.666 54.2235L173.572 54.8039C173.483 55.3581 173.177 55.8541 172.722 56.1828C172.267 56.5115 171.7 56.646 171.146 56.5568L170.246 56.4118C169.971 56.3683 169.707 56.2709 169.47 56.1253C169.232 55.9797 169.026 55.7887 168.863 55.5632C168.699 55.3378 168.582 55.0823 168.518 54.8114C168.453 54.5406 168.443 54.2596 168.487 53.9847Z" fill="#FF746F"/>
<path d="M184.369 69.5059L188.31 69.6529L186.71 72.0469V91.1089L184.399 95.9789L182.27 90.1149L185.234 71.8939L184.369 69.5059Z" fill="#1A55B5"/>
<path d="M195.112 57.196C194.995 55.8954 194.498 54.658 193.683 53.638C192.908 52.7169 191.889 52.0339 190.742 51.668C190.215 51.4798 189.653 51.4055 189.095 51.45C188.397 51.5903 187.673 51.5395 187.001 51.303C186.133 50.775 185.303 50.1855 184.519 49.539C184.318 49.4135 184.103 49.3128 183.878 49.239C183.397 49.0522 182.878 48.9856 182.365 49.045C181.853 49.1044 181.363 49.2881 180.937 49.58C180.516 49.8859 180.175 50.2894 179.943 50.756C179.705 51.212 179.555 51.7092 179.502 52.221C179.43 53.2544 179.687 54.2842 180.237 55.162C180.737 55.9567 181.423 56.617 182.237 57.085C182.208 57.297 182.178 57.508 182.166 57.726C182.08 59.2098 182.507 60.678 183.376 61.8839C184.245 63.0898 185.502 63.9598 186.937 64.3476C188.372 64.7354 189.897 64.6174 191.255 64.0134C192.613 63.4094 193.721 62.3562 194.394 61.031C195.004 59.8506 195.254 58.517 195.112 57.196ZM181.586 55.969C181.271 55.6163 180.988 55.2365 180.739 54.834C180.209 54.0605 179.93 53.1426 179.939 52.205C179.953 51.7395 180.065 51.2821 180.267 50.8625C180.469 50.4429 180.757 50.0704 181.112 49.769C181.391 49.5432 181.717 49.3823 182.065 49.298C181.887 49.3755 181.72 49.4786 181.571 49.604C181.254 49.916 181.001 50.2876 180.828 50.6973C180.654 51.107 180.563 51.547 180.559 51.992C180.495 52.851 180.625 53.7136 180.941 54.5152C181.256 55.3167 181.749 56.0366 182.382 56.621C182.379 56.6445 182.379 56.6684 182.382 56.692C182.091 56.4745 181.818 56.2344 181.564 55.974L181.586 55.969Z" fill="#1A55B5"/>
<path d="M192.079 61.131C192.033 61.4114 192.085 61.6992 192.226 61.9456C192.368 62.1919 192.591 62.3815 192.857 62.482C193.123 62.5826 193.415 62.5879 193.684 62.4971C193.954 62.4062 194.183 62.2249 194.334 61.9839C194.484 61.7429 194.547 61.4571 194.51 61.1752C194.474 60.8934 194.341 60.6328 194.134 60.4379C193.927 60.2431 193.659 60.1259 193.376 60.1064C193.092 60.0869 192.811 60.1663 192.579 60.331C192.313 60.521 192.133 60.8087 192.079 61.131Z" fill="#FF746F"/>
<path d="M186.805 54.2382C185.988 54.2214 185.183 54.4327 184.479 54.8484C183.776 55.264 183.202 55.8676 182.823 56.5912L182.664 57.4382L182.54 58.1912C182.537 58.2265 182.537 58.262 182.54 58.2972L182.187 60.3972C181.933 61.796 182.237 63.2385 183.032 64.4165C183.828 65.5946 185.053 66.4149 186.445 66.7022C187.139 66.8307 187.852 66.8198 188.542 66.6702C189.232 66.5206 189.885 66.2353 190.463 65.8308C191.042 65.4264 191.534 64.9109 191.912 64.3144C192.289 63.7179 192.544 63.0522 192.662 62.3562L193.097 59.7802C193.097 59.7802 193.89 54.7562 186.805 54.2382Z" fill="#FF746F"/>
<path d="M187.369 61.061C186.515 60.7525 185.613 60.6011 184.705 60.614C184.575 60.6999 184.475 60.8243 184.419 60.9699C184.363 61.1156 184.354 61.2751 184.393 61.426C184.48 61.7295 184.677 61.9896 184.946 62.155C185.242 62.3523 185.582 62.471 185.936 62.4999C186.29 62.5288 186.646 62.4669 186.969 62.32C187.224 62.2189 187.433 62.0288 187.557 61.785C187.615 61.6613 187.627 61.5214 187.593 61.3893C187.559 61.2572 187.48 61.1412 187.369 61.061Z" fill="white"/>
<path d="M187.951 54.3671C188.669 54.4851 189.371 54.6823 190.045 54.9551C190.552 55.1407 191.023 55.4112 191.439 55.7551C192.768 56.9311 191.586 59.4071 191.127 60.7071C191.015 61.0251 190.886 61.4011 191.086 61.6721C191.215 61.8002 191.389 61.8721 191.571 61.8721C191.753 61.8721 191.927 61.8002 192.056 61.6721C192.3 61.4084 192.498 61.1063 192.644 60.7781C192.721 60.6128 192.837 60.4683 192.981 60.3568C193.125 60.2453 193.294 60.17 193.473 60.1371L193.261 54.2551C193.261 54.2551 189.561 54.1311 189.273 54.1201C188.822 54.1346 188.377 54.2179 187.951 54.3671Z" fill="#1A55B5"/>
</svg>
